<?xml version="1.0" encoding="UTF-8"?>
<!DOCTYPE svg PUBLIC "-//W3C//DTD SVG 1.1//EN" "http://www.w3.org/Graphics/SVG/1.1/DTD/svg11.dtd">
<svg xmlns="http://www.w3.org/2000/svg" version="1.1" width="3708px" height="1240px" style="shape-rendering:geometricPrecision; text-rendering:geometricPrecision; image-rendering:optimizeQuality; fill-rule:evenodd; clip-rule:evenodd" xmlns:xlink="http://www.w3.org/1999/xlink">
<g><path style="opacity:0.915" fill="#545454" d="M 3394.5,128.5 C 3396.6,128.201 3398.6,128.534 3400.5,129.5C 3441.34,158.34 3477.01,192.673 3507.5,232.5C 3594.39,354.051 3629.72,489.384 3613.5,638.5C 3593.31,774.552 3534.31,890.219 3436.5,985.5C 3435.17,986.167 3433.83,986.833 3432.5,987.5C 3425.77,994.905 3418.43,1001.57 3410.5,1007.5C 3406.81,1009.86 3403.15,1012.2 3399.5,1014.5C 3397.96,1014.21 3396.62,1013.54 3395.5,1012.5C 3391.83,1005.17 3388.17,997.833 3384.5,990.5C 3399.75,976.251 3414.75,961.584 3429.5,946.5C 3507.94,858.23 3553.28,754.897 3565.5,636.5C 3576.12,536.178 3562.12,439.512 3523.5,346.5C 3500.57,296.282 3470.57,250.949 3433.5,210.5C 3432.83,209.167 3432.17,207.833 3431.5,206.5C 3415.5,190.5 3399.5,174.5 3383.5,158.5C 3382.17,155.833 3382.17,153.167 3383.5,150.5C 3387.19,143.114 3390.86,135.78 3394.5,128.5 Z"/></g>
<g><path style="opacity:0.916" fill="#545454" d="M 308.5,130.5 C 309.833,130.5 311.167,130.5 312.5,130.5C 315.595,138.695 319.262,146.695 323.5,154.5C 324.833,156.5 324.833,158.5 323.5,160.5C 289.86,192.791 259.193,227.457 231.5,264.5C 174.935,346.858 144.269,438.192 139.5,538.5C 132.78,649.61 155.446,754.276 207.5,852.5C 214.833,864.5 222.167,876.5 229.5,888.5C 234.945,894.614 239.612,901.28 243.5,908.5C 252.924,918.587 261.591,929.253 269.5,940.5C 287.529,958.195 305.196,976.195 322.5,994.5C 317.423,1001.99 313.423,1009.99 310.5,1018.5C 306.989,1017.36 303.656,1015.69 300.5,1013.5C 287.748,1003.77 275.748,993.106 264.5,981.5C 263.167,980.833 261.833,980.167 260.5,979.5C 246.167,963.833 231.833,948.167 217.5,932.5C 134.608,827.271 91.6085,707.271 88.5,572.5C 90.94,437.483 133.94,317.483 217.5,212.5C 231.104,196.894 245.437,181.894 260.5,167.5C 276.277,154.642 292.277,142.309 308.5,130.5 Z"/></g>
<g><path style="opacity:0.919" fill="#545454" d="M 992.5,130.5 C 1001.57,130.034 1010.24,131.701 1018.5,135.5C 1036.49,144.489 1053.82,154.489 1070.5,165.5C 1079.43,171.697 1082.43,180.03 1079.5,190.5C 1077.17,192.833 1074.83,195.167 1072.5,197.5C 1009.63,227.269 947.629,258.602 886.5,291.5C 881.88,292.493 877.214,292.827 872.5,292.5C 871.995,286.86 872.995,281.527 875.5,276.5C 890.106,263.897 904.106,250.563 917.5,236.5C 922.76,229.237 928.76,222.57 935.5,216.5C 944.167,205.833 952.833,195.167 961.5,184.5C 966.833,176.5 972.167,168.5 977.5,160.5C 980.53,151.707 983.864,143.04 987.5,134.5C 989.489,133.368 991.156,132.035 992.5,130.5 Z"/></g>
<g><path style="opacity:0.925" fill="#545454" d="M 668.5,190.5 C 700.222,190.52 729.555,198.853 756.5,215.5C 765.667,223.325 773.333,232.325 779.5,242.5C 784.529,252.948 787.529,263.948 788.5,275.5C 788.187,283.772 785.854,291.438 781.5,298.5C 769.06,306.496 756.726,306.162 744.5,297.5C 735.934,292.269 727.934,286.269 720.5,279.5C 708.833,267.833 697.167,256.167 685.5,244.5C 677.404,235.741 670.071,226.407 663.5,216.5C 655.992,205.888 657.659,197.221 668.5,190.5 Z"/></g>
<g><path style="opacity:0.922" fill="#545454" d="M 2038.5,190.5 C 2053.78,189.135 2068.45,191.468 2082.5,197.5C 2106.81,209.316 2130.14,222.649 2152.5,237.5C 2160.77,243.762 2168.43,250.762 2175.5,258.5C 2177.72,262.281 2179.39,266.281 2180.5,270.5C 2179.14,274.532 2177.81,278.532 2176.5,282.5C 2165.05,286.558 2154.39,292.225 2144.5,299.5C 2130.66,312.872 2118.99,327.872 2109.5,344.5C 2095.38,374.745 2080.71,404.745 2065.5,434.5C 2059.5,443.833 2053.5,453.167 2047.5,462.5C 2043.17,466.833 2038.83,471.167 2034.5,475.5C 2022.4,478.447 2012.4,475.114 2004.5,465.5C 2002.5,464.833 2000.5,464.167 1998.5,463.5C 1987.5,462.5 1976.5,461.5 1965.5,460.5C 1942.43,462.117 1919.43,464.451 1896.5,467.5C 1855.11,473.62 1813.78,479.954 1772.5,486.5C 1770.52,502.496 1761.85,507.829 1746.5,502.5C 1741.68,493.512 1737.34,484.178 1733.5,474.5C 1725.5,446.5 1717.5,418.5 1709.5,390.5C 1698.15,353.137 1683.48,317.137 1665.5,282.5C 1657.5,273.167 1649.5,263.833 1641.5,254.5C 1639.94,252.043 1638.94,249.376 1638.5,246.5C 1639.19,243.802 1639.86,241.135 1640.5,238.5C 1646.73,237.349 1653.07,236.683 1659.5,236.5C 1672.51,237.703 1685.51,239.036 1698.5,240.5C 1807.72,229.516 1916.39,214.516 2024.5,195.5C 2029.51,194.105 2034.17,192.438 2038.5,190.5 Z M 1990.5,238.5 C 2008.51,238.167 2026.51,238.5 2044.5,239.5C 2052.38,239.928 2058.04,243.595 2061.5,250.5C 2062.83,256.5 2062.83,262.5 2061.5,268.5C 2054.26,308.79 2043.59,348.123 2029.5,386.5C 2024.05,399.409 2018.05,412.076 2011.5,424.5C 2008.99,425.921 2006.66,427.588 2004.5,429.5C 2001.3,430.047 1998.3,431.047 1995.5,432.5C 1986.05,430.276 1976.38,428.942 1966.5,428.5C 1901.52,435.887 1836.85,445.22 1772.5,456.5C 1767.13,427.333 1761.13,398.333 1754.5,369.5C 1817.45,367.535 1880.12,362.201 1942.5,353.5C 1956.06,352.257 1968.72,348.257 1980.5,341.5C 1985.91,337.773 1987.58,332.773 1985.5,326.5C 1979.91,322.208 1973.58,319.874 1966.5,319.5C 1946.5,318.167 1926.5,318.167 1906.5,319.5C 1854.05,326.257 1802.38,336.59 1751.5,350.5C 1750.83,349.833 1750.17,349.167 1749.5,348.5C 1742.55,320.363 1734.22,292.696 1724.5,265.5C 1759.91,263.875 1795.25,261.209 1830.5,257.5C 1883.87,248.827 1937.2,242.494 1990.5,238.5 Z"/></g>
<g><path style="opacity:0.933" fill="#545454" d="M 2786.5,884.5 C 2828.21,860.981 2871.54,840.648 2916.5,823.5C 2918.17,823.167 2919.83,822.833 2921.5,822.5C 2924.57,823.046 2927.57,823.712 2930.5,824.5C 2930.82,827.898 2930.49,831.232 2929.5,834.5C 2925.17,838.833 2920.83,843.167 2916.5,847.5C 2866.63,882.673 2820.3,922.339 2777.5,966.5C 2773.58,972.426 2768.91,977.759 2763.5,982.5C 2759.13,989.897 2753.79,996.563 2747.5,1002.5C 2746.57,1003.69 2746.24,1005.02 2746.5,1006.5C 2740.49,1010.84 2733.82,1014.17 2726.5,1016.5C 2721.48,1015.83 2717.15,1013.83 2713.5,1010.5C 2699.3,989.25 2693.3,965.916 2695.5,940.5C 2702.84,924.479 2712.17,909.812 2723.5,896.5C 2731.81,881.577 2736.47,865.577 2737.5,848.5C 2746.08,777.404 2749.41,706.07 2747.5,634.5C 2746.6,619.055 2744.94,603.721 2742.5,588.5C 2728.66,587.876 2714.99,588.542 2701.5,590.5C 2678.35,652.133 2650.35,711.466 2617.5,768.5C 2612.17,776.5 2606.83,784.5 2601.5,792.5C 2561.49,848.517 2512.49,894.85 2454.5,931.5C 2449.17,934.167 2443.83,936.833 2438.5,939.5C 2434.55,940.491 2430.55,940.824 2426.5,940.5C 2426.18,937.102 2426.51,933.768 2427.5,930.5C 2429.33,928.844 2430.66,926.844 2431.5,924.5C 2438.43,915.566 2446.1,907.233 2454.5,899.5C 2455.83,898.833 2457.17,898.167 2458.5,897.5C 2484.96,870.844 2509.3,842.51 2531.5,812.5C 2635.08,660.758 2691.41,492.758 2700.5,308.5C 2698.91,292.771 2696.91,277.105 2694.5,261.5C 2694.75,256.399 2695.42,251.399 2696.5,246.5C 2704.39,244.446 2712.39,244.113 2720.5,245.5C 2730.73,248.946 2740.73,252.946 2750.5,257.5C 2754.84,260.672 2759.51,263.339 2764.5,265.5C 2793.54,267.089 2822.21,264.422 2850.5,257.5C 2863.25,254.478 2875.92,251.145 2888.5,247.5C 2934.77,232.964 2980.77,217.631 3026.5,201.5C 3047.54,194.635 3068.87,193.301 3090.5,197.5C 3099.87,200.2 3106.87,205.866 3111.5,214.5C 3111.83,215.833 3112.17,217.167 3112.5,218.5C 3111.7,221.893 3110.7,225.226 3109.5,228.5C 3097.55,237.31 3084.55,244.31 3070.5,249.5C 2990.14,271.839 2908.81,289.839 2826.5,303.5C 2807.1,305.009 2787.76,304.676 2768.5,302.5C 2763.4,368.331 2751.73,432.998 2733.5,496.5C 2726.28,519.143 2719.28,541.81 2712.5,564.5C 2736.02,562.136 2759.35,558.469 2782.5,553.5C 2834.51,541.94 2885.84,527.94 2936.5,511.5C 2976.47,498.623 3016.13,484.956 3055.5,470.5C 3078.64,463.111 3102.31,460.778 3126.5,463.5C 3139,465.434 3150,470.434 3159.5,478.5C 3163.59,484.938 3162.59,490.605 3156.5,495.5C 3150.39,499.888 3143.72,503.221 3136.5,505.5C 3044.07,531.275 2950.73,553.275 2856.5,571.5C 2896.71,615.716 2938.38,658.716 2981.5,700.5C 3008.24,679.756 3031.58,655.756 3051.5,628.5C 3059.18,617.145 3065.85,605.145 3071.5,592.5C 3074.42,582.562 3077.09,572.562 3079.5,562.5C 3080.43,559.638 3082.1,557.305 3084.5,555.5C 3094.44,551.865 3104.44,551.865 3114.5,555.5C 3133.74,560.798 3151.74,568.798 3168.5,579.5C 3181.83,589.5 3181.83,599.5 3168.5,609.5C 3164.5,611.5 3160.5,613.5 3156.5,615.5C 3110.85,647.328 3064.85,678.661 3018.5,709.5C 3014.4,713.54 3009.73,716.54 3004.5,718.5C 3004.24,719.978 3004.57,721.311 3005.5,722.5C 3042.26,758.618 3081.93,790.952 3124.5,819.5C 3162.38,841.47 3202.38,858.804 3244.5,871.5C 3281.08,881.811 3317.75,891.811 3354.5,901.5C 3362.21,904.715 3364.21,910.048 3360.5,917.5C 3356.72,919.447 3352.72,920.78 3348.5,921.5C 3296.15,929.935 3243.48,934.935 3190.5,936.5C 3165.9,938.081 3141.9,935.081 3118.5,927.5C 3112.18,924.674 3106.18,921.341 3100.5,917.5C 3081.44,899.107 3063.11,880.107 3045.5,860.5C 3041.58,854.574 3036.91,849.241 3031.5,844.5C 3030.83,843.167 3030.17,841.833 3029.5,840.5C 3013.03,822.876 2997.03,804.876 2981.5,786.5C 2978.25,781.245 2974.25,776.578 2969.5,772.5C 2965.5,767.167 2961.5,761.833 2957.5,756.5C 2943.69,741.541 2930.36,726.207 2917.5,710.5C 2914.17,705.833 2910.83,701.167 2907.5,696.5C 2876.64,660.315 2847.31,622.981 2819.5,584.5C 2817.46,582.126 2815.13,580.126 2812.5,578.5C 2799.2,581.627 2785.87,584.627 2772.5,587.5C 2782.83,595.167 2791.83,604.167 2799.5,614.5C 2804.06,621.858 2806.4,629.858 2806.5,638.5C 2804.46,654.01 2801.46,669.343 2797.5,684.5C 2790.95,751.006 2787.29,817.672 2786.5,884.5 Z M 2786.5,884.5 C 2786.36,886.337 2785.69,886.67 2784.5,885.5C 2784.96,884.702 2785.62,884.369 2786.5,884.5 Z"/></g>
<g><path style="opacity:0.933" fill="#545454" d="M 1096.5,290.5 C 1109.68,289.961 1122.35,292.295 1134.5,297.5C 1162.1,310.79 1187.1,327.79 1209.5,348.5C 1221.43,367.739 1217.76,383.405 1198.5,395.5C 1191.43,401.902 1185.09,408.902 1179.5,416.5C 1148.17,467.833 1116.83,519.167 1085.5,570.5C 1081.88,576.06 1077.54,581.06 1072.5,585.5C 1056.27,593.865 1044.6,589.532 1037.5,572.5C 1033.11,567.139 1027.45,564.139 1020.5,563.5C 1012.5,562.5 1004.5,561.5 996.5,560.5C 887.747,568.927 779.747,582.927 672.5,602.5C 671.937,611.958 667.937,619.625 660.5,625.5C 653.14,627.555 646.807,625.888 641.5,620.5C 627.732,591.632 615.066,562.299 603.5,532.5C 596.167,516.5 588.833,500.5 581.5,484.5C 563.231,446.953 542.565,410.953 519.5,376.5C 517.789,369.589 520.123,364.589 526.5,361.5C 540.853,360.412 555.186,360.745 569.5,362.5C 728.118,344.381 886.451,324.048 1044.5,301.5C 1062.35,299.026 1079.69,295.36 1096.5,290.5 Z M 1034.5,346.5 C 1051.18,346.167 1067.85,346.501 1084.5,347.5C 1097.91,347.577 1104.58,354.243 1104.5,367.5C 1098.48,421.278 1082.15,471.612 1055.5,518.5C 1051.25,524.097 1045.92,528.097 1039.5,530.5C 1021.93,525.418 1003.93,522.752 985.5,522.5C 947.508,524.833 909.841,529.5 872.5,536.5C 874.203,477.843 875.537,419.176 876.5,360.5C 929.459,355.922 982.126,351.255 1034.5,346.5 Z M 808.5,368.5 C 812.5,368.5 816.5,368.5 820.5,368.5C 820.5,427.167 820.5,485.833 820.5,544.5C 768.586,552.93 716.586,560.93 664.5,568.5C 644.771,510.648 625.438,452.648 606.5,394.5C 674.583,389.574 741.916,380.907 808.5,368.5 Z"/></g>
<g><path style="opacity:0.911" fill="#545454" d="M 3014.5,350.5 C 3025.85,350.168 3037.19,350.501 3048.5,351.5C 3053.89,353.03 3058.89,355.363 3063.5,358.5C 3067.5,364.5 3067.5,370.5 3063.5,376.5C 3059.06,381.542 3054.06,385.875 3048.5,389.5C 3033.48,396.284 3018.15,402.284 3002.5,407.5C 2962.53,420.325 2921.87,430.325 2880.5,437.5C 2855.47,442.394 2830.8,441.061 2806.5,433.5C 2801,431.255 2796,428.255 2791.5,424.5C 2790.17,421.833 2790.17,419.167 2791.5,416.5C 2794.8,414.066 2798.46,412.399 2802.5,411.5C 2832.27,406.725 2861.6,400.058 2890.5,391.5C 2932.28,378.35 2973.61,364.684 3014.5,350.5 Z"/></g>
<g><path style="opacity:0.904" fill="#545454" d="M 970.5,382.5 C 974.555,382.176 978.555,382.509 982.5,383.5C 999.283,388.89 1014.62,396.89 1028.5,407.5C 1033.09,412.59 1035.76,418.59 1036.5,425.5C 1035.43,429.952 1034.1,434.285 1032.5,438.5C 1001.2,451.275 969.868,464.275 938.5,477.5C 932.291,479.636 925.958,481.302 919.5,482.5C 916.434,481.954 913.434,481.288 910.5,480.5C 910.173,475.786 910.507,471.12 911.5,466.5C 922.833,453.833 934.167,441.167 945.5,428.5C 949.004,422.156 953.004,416.156 957.5,410.5C 960.814,401.894 963.814,393.227 966.5,384.5C 968.483,384.843 969.817,384.176 970.5,382.5 Z"/></g>
<g><path style="opacity:0.908" fill="#545454" d="M 688.5,434.5 C 698.522,434.168 708.522,434.501 718.5,435.5C 723.256,436.522 727.923,437.856 732.5,439.5C 738.606,442.553 744.606,445.553 750.5,448.5C 750.238,449.978 750.571,451.311 751.5,452.5C 756.285,456.738 758.952,462.071 759.5,468.5C 760.875,482.3 758.875,495.634 753.5,508.5C 750.5,511.5 747.5,514.5 744.5,517.5C 735.577,519.192 727.577,517.192 720.5,511.5C 703.792,495.733 690.792,477.399 681.5,456.5C 680.504,450.537 680.171,444.537 680.5,438.5C 683.806,438.181 686.473,436.847 688.5,434.5 Z"/></g>
<g><path style="opacity:0.932" fill="#545454" d="M 1844.5,480.5 C 1868.74,479.894 1891.41,485.56 1912.5,497.5C 1920.18,502.854 1923.51,510.187 1922.5,519.5C 1921.32,529.901 1919.65,540.234 1917.5,550.5C 1916.32,562.497 1915.32,574.497 1914.5,586.5C 1946.39,579.789 1978.39,573.456 2010.5,567.5C 2025.09,565.176 2039.76,563.509 2054.5,562.5C 2069.64,561.853 2083.31,565.853 2095.5,574.5C 2099.67,583.336 2098.01,591.003 2090.5,597.5C 2084.15,600.95 2077.49,603.616 2070.5,605.5C 2017.33,616.25 1964,625.917 1910.5,634.5C 1909.95,665.927 1908.62,697.26 1906.5,728.5C 1930.44,724.621 1954.44,720.954 1978.5,717.5C 2000.68,712.942 2022.68,713.609 2044.5,719.5C 2051.32,722.409 2057.66,726.076 2063.5,730.5C 2067.6,736.42 2067.27,742.087 2062.5,747.5C 2058.5,749.5 2054.5,751.5 2050.5,753.5C 2002.48,760.599 1954.48,767.599 1906.5,774.5C 1904.95,809.635 1902.95,844.635 1900.5,879.5C 1902.83,879.833 1905.17,880.167 1907.5,880.5C 1985.22,874.101 2062.88,867.101 2140.5,859.5C 2174.02,856.785 2206.69,860.785 2238.5,871.5C 2258.4,879.937 2276.06,891.604 2291.5,906.5C 2295.99,913.262 2297.32,920.595 2295.5,928.5C 2292.86,932.475 2289.2,934.808 2284.5,935.5C 2270.61,938.41 2256.61,939.076 2242.5,937.5C 2155.72,923.768 2068.38,916.768 1980.5,916.5C 1882.61,917.184 1785.28,924.85 1688.5,939.5C 1647.8,945.951 1607.13,952.617 1566.5,959.5C 1551.17,960.833 1535.83,960.833 1520.5,959.5C 1499.06,953.612 1480.06,943.279 1463.5,928.5C 1462.22,926.283 1461.22,923.949 1460.5,921.5C 1461.48,919.223 1462.14,916.89 1462.5,914.5C 1592.6,906.852 1722.6,896.852 1852.5,884.5C 1853.47,849.818 1854.8,815.151 1856.5,780.5C 1827.94,784.29 1799.27,787.29 1770.5,789.5C 1754.4,791.05 1738.4,790.384 1722.5,787.5C 1716.1,785.803 1710.44,782.803 1705.5,778.5C 1704.51,775.232 1704.18,771.898 1704.5,768.5C 1708.24,766.477 1712.24,764.81 1716.5,763.5C 1763.87,755.16 1811.21,746.827 1858.5,738.5C 1859.91,705.853 1860.58,673.186 1860.5,640.5C 1826.59,644.823 1792.59,648.49 1758.5,651.5C 1735.83,652.833 1713.17,652.833 1690.5,651.5C 1685.43,650.822 1680.43,649.822 1675.5,648.5C 1669.93,652.06 1664.93,656.393 1660.5,661.5C 1653.17,667.5 1645.83,673.5 1638.5,679.5C 1624.38,690.282 1609.71,700.282 1594.5,709.5C 1579.17,718.167 1563.83,726.833 1548.5,735.5C 1529.57,743.244 1524.57,738.244 1533.5,720.5C 1554.83,699.167 1576.17,677.833 1597.5,656.5C 1606.36,644.798 1615.69,633.465 1625.5,622.5C 1629,616.156 1633,610.156 1637.5,604.5C 1642.61,595.611 1646.61,586.277 1649.5,576.5C 1650.66,569.121 1650.33,561.788 1648.5,554.5C 1649.27,549.636 1650.61,544.969 1652.5,540.5C 1655.34,540.083 1658.01,539.083 1660.5,537.5C 1669.95,536.252 1679.28,536.919 1688.5,539.5C 1702.26,542.976 1715.6,547.643 1728.5,553.5C 1733.01,556.253 1737.34,559.253 1741.5,562.5C 1743.06,564.957 1744.06,567.624 1744.5,570.5C 1743.39,574.719 1741.72,578.719 1739.5,582.5C 1725.9,594.103 1712.9,606.436 1700.5,619.5C 1704.17,619.833 1707.83,620.167 1711.5,620.5C 1760.9,615.656 1809.9,608.323 1858.5,598.5C 1857.98,579.074 1856.31,559.741 1853.5,540.5C 1851.81,533.079 1849.81,525.746 1847.5,518.5C 1844.17,511.833 1840.83,505.167 1837.5,498.5C 1836.17,493.833 1836.17,489.167 1837.5,484.5C 1840.1,483.33 1842.44,481.997 1844.5,480.5 Z"/></g>
<g><path style="opacity:0.937" fill="#545454" d="M 968.5,624.5 C 975.863,624.169 983.197,624.503 990.5,625.5C 1015.7,634.594 1037.37,648.927 1055.5,668.5C 1058.51,675.577 1059.17,682.911 1057.5,690.5C 1053.9,701.696 1049.23,712.363 1043.5,722.5C 1037.98,749.543 1035.65,776.876 1036.5,804.5C 1038.24,847.827 1038.57,891.16 1037.5,934.5C 1033.61,979.947 1014.61,1017.61 980.5,1047.5C 972.725,1051.95 965.725,1050.95 959.5,1044.5C 956.284,1038.74 953.617,1032.74 951.5,1026.5C 945.42,996.848 938.087,967.515 929.5,938.5C 926.896,930.951 922.563,924.618 916.5,919.5C 912.653,917.884 908.653,916.884 904.5,916.5C 845.394,924.124 786.061,928.79 726.5,930.5C 724.615,948.488 718.949,965.155 709.5,980.5C 700.01,990.987 690.677,990.987 681.5,980.5C 671.485,961.772 666.485,941.772 666.5,920.5C 668.175,897.769 670.508,875.102 673.5,852.5C 676.499,811.434 673.832,770.767 665.5,730.5C 661.822,717.142 656.488,704.476 649.5,692.5C 641.866,668.799 650.2,659.799 674.5,665.5C 679.399,666.949 684.065,668.949 688.5,671.5C 692.167,671.833 695.833,672.167 699.5,672.5C 777.959,666.054 855.626,654.387 932.5,637.5C 944.911,633.596 956.911,629.263 968.5,624.5 Z M 924.5,676.5 C 932.48,677.497 940.48,678.497 948.5,679.5C 964.542,683.55 973.542,693.884 975.5,710.5C 978.369,733.4 980.036,756.4 980.5,779.5C 979.474,805.166 978.474,830.832 977.5,856.5C 976.814,873.99 974.814,891.324 971.5,908.5C 967.624,913.457 963.291,913.79 958.5,909.5C 953.167,903.5 947.833,897.5 942.5,891.5C 938.5,888.833 934.5,886.167 930.5,883.5C 920.466,880.027 910.133,878.36 899.5,878.5C 841.717,883.55 784.051,889.55 726.5,896.5C 728.039,865.882 729.039,835.216 729.5,804.5C 732.298,805.953 735.298,806.953 738.5,807.5C 766.489,811.311 794.489,811.311 822.5,807.5C 856.318,804.086 889.652,798.086 922.5,789.5C 928.734,786.61 932.734,781.943 934.5,775.5C 932.729,767.31 928.062,761.31 920.5,757.5C 911.743,753.013 902.409,750.68 892.5,750.5C 881.734,751.517 871.067,753.183 860.5,755.5C 816.327,765.21 772.327,775.544 728.5,786.5C 728.24,759.006 726.24,731.673 722.5,704.5C 740.574,704.829 758.574,703.829 776.5,701.5C 826.228,693.745 875.562,685.412 924.5,676.5 Z"/></g>
</svg>
